<svg width="233" height="40" viewBox="0 0 233 40" xmlns="http://www.w3.org/2000/svg" fill="none">
  <g id="logomark">
    <rect id="var" width="12" height="12" fill="#FEC147" x="26"/>
    <rect id="var_2" width="16" height="16" fill="#F45643" x="38" y="12"/>
    <rect id="var_3" width="12" height="12" fill="#F45643" x="26" y="28"/>
    <rect id="var_4" width="10" height="10" fill="#207AE6" x="16" y="12"/>
    <rect id="var_5" width="8" height="8" fill="#207AE6" x="8" y="22"/>
    <rect id="var_6" width="10" height="10" fill="#42C046" x="6" y="2"/>
    <rect id="var_7" width="6" height="6" fill="#42C046" y="12"/>
  </g>
  <g id="logotype">
    <path fill="#121F37" d="M190.498 10.4573H199.321L207.533 24.6222L215.772 10.4573H224.595V29.0604H220.449V10.6433L209.739 29.0604H205.354L194.617 10.6433V29.0604H190.498V10.4573ZM163.921 21.8317C160.785 21.8317 158.261 19.307 158.261 16.1445C158.261 13.0086 160.785 10.4573 163.921 10.4573H187.972V14.6031H163.921C163.071 14.6031 162.38 15.2941 162.38 16.1445C162.38 17.0215 163.071 17.7125 163.921 17.7125H182.285C185.421 17.7125 187.972 20.2372 187.972 23.3997C187.972 26.5357 185.421 29.0604 182.285 29.0604H158.261V24.9411H182.285C183.136 24.9411 183.827 24.2501 183.827 23.3997C183.827 22.5227 183.136 21.8317 182.285 21.8317H163.921ZM148.857 10.4573C152.843 10.4573 156.086 13.6995 156.086 17.7125C156.086 21.6989 152.843 24.9411 148.857 24.9411H130.254V29.0604H126.135V10.4573H148.857ZM148.83 20.7953C150.558 20.7953 151.94 19.4133 151.94 17.7125C151.94 15.985 150.558 14.6031 148.83 14.6031H130.254V20.7953H148.83ZM103.975 14.6031C101.105 14.6031 98.7927 16.9152 98.7927 19.7588C98.7927 22.629 101.105 24.9411 103.975 24.9411H119.336V21.6989H103.576V17.5796H123.482V29.0604H103.975C98.8192 29.0604 94.6734 24.9145 94.6734 19.7588C94.6734 14.6297 98.8192 10.4573 103.975 10.4573H123.482V14.6031H103.975ZM68 29.0604V10.4573H72.1192V24.9411H92.9281V29.0604H68ZM232.311 9.41768C232.311 10.7529 231.228 11.8354 229.893 11.8354C228.558 11.8354 227.475 10.7529 227.475 9.41768C227.475 8.08243 228.558 7 229.893 7C231.228 7 232.311 8.08243 232.311 9.41768Z"/>
  </g>
</svg>